# AST/ASF file generated using VICON BodyLanguage
# -----------------------------------------------
:version 1.10
:name VICON
:units
  mass 1.0
  length 0.45
  angle deg
:documentation
   .ast/.asf automatically generated from VICON data using
   VICON BodyBuilder and BodyLanguage model FoxedUp or BRILLIANT.MOD
:root
   order TX TY TZ RX RY RZ
   axis XYZ
   position 0 0 0  
   orientation 0 0 0 
:bonedata
  begin
     id 1 
     name lhipjoint
     direction 0.624716 -0.669793 0.401383 
     length 2.38238 
     axis 0 0 0  XYZ
  end
  begin
     id 2 
     name lfemur
     direction 0.34202 -0.939693 0  
     length 6.4574  
     axis 0 0 20  XYZ
    dof rx ry rz
    limits (-160.0 20.0)
           (-70.0 70.0)
           (-60.0 70.0)
  end
  begin
     id 3 
     name ltibia
     direction 0.34202 -0.939693 0   
     length 7.68739   
     axis 0 0 20   XYZ
    dof rx
    limits (-10.0 170.0)
  end
  begin
     id 4 
     name lfoot
     direction 0.0681309 -0.187188 0.979959   
     length 2.46615   
     axis -90 7.62852e-016 20   XYZ
    dof rx rz
    limits (-45.0 90.0)
           (-70.0 20.0)
  end
  begin
     id 5 
     name ltoes
     direction 1.53566e-011 -4.21819e-011 1   
     length 1.2376   
     axis -90 7.62852e-016 20   XYZ
    dof rx
    limits (-90.0 20.0)
  end
  begin
     id 6 
     name rhipjoint
     direction -0.644473 -0.655875 0.393043   
     length 2.43293  
     axis 0 0 0  XYZ 
  end
  begin
     id 7 
     name rfemur
     direction -0.34202 -0.939693 0   
     length 6.7025   
     axis 0 0 -20   XYZ
    dof rx ry rz
    limits (-160.0 20.0)
           (-70.0 70.0)
           (-70.0 60.0)
  end
  begin
     id 8 
     name rtibia
     direction -0.34202 -0.939693 0   
     length 7.80547   
     axis 0 0 -20   XYZ
    dof rx
    limits (-10.0 170.0)
 end
 begin
     id 9 
     name rfoot
     direction -0.0756734 -0.207911 0.975216   
     length 2.40315  
     axis -90 -7.62852e-016 -20   XYZ
    dof rx rz
    limits (-45.0 90.0)
           (-20.0 70.0)
  end
  begin
     id 10 
     name rtoes
     direction -1.5353e-011 -4.21879e-011 1   
     length 1.20477   
     axis -90 -7.62852e-016 -20   XYZ
    dof rx
    limits (-90.0 20.0)
  end
  begin
     id 11 
     name lowerback
     direction 0.0160353 0.987463 -0.157037   
     length 2.18572   
     axis 0 0 0   XYZ
    dof rx ry rz
    limits (-20.0 45.0)
           (-30.0 30.0)
           (-30.0 30.0)
  end
  begin
     id 12 
     name upperback
     direction -0.00499661 0.999756 0.0215076   
     length 2.18016   
     axis 0 0 0   XYZ
    dof rx ry rz
    limits (-20.0 45.0)
           (-30.0 30.0)
           (-30.0 30.0)
  end
  begin
     id 13 
     name thorax
     direction -0.00921346 0.995333 0.0960619   
     length 2.24923   
     axis 0 0 0   XYZ
    dof rx ry rz
    limits (-20.0 45.0)
           (-30.0 30.0)
           (-30.0 30.0)
  end
  begin
     id 14 
     name lowerneck
     direction 0.0274184 0.991181 0.12965   
     length 1.70911   
     axis 0 0 0   XYZ
    dof rx ry rz
    limits (-20.0 45.0)
           (-30.0 30.0)
           (-30.0 30.0)
  end
  begin
     id 15 
     name upperneck
     direction 0.0015627 0.999959 -0.00893559   
     length 1.69312   
     axis 0 0 0   XYZ
    dof rx ry rz
    limits (-20.0 45.0)
           (-30.0 30.0)
           (-30.0 30.0)
  end
  begin
     id 16
     name head
     direction -0.00230242 0.999856 -0.0168327  
     length 1.80241  
     axis 0 0 0   XYZ
    dof rx ry rz
    limits (-20.0 45.0)
           (-30.0 30.0)
           (-30.0 30.0)
  end
  begin
     id 17 
     name lclavicle
     direction 0.955523 0.290741 -0.0494489  
     length 3.84275  
     axis 0 0 0   XYZ
    dof ry rz
    limits (-20.0 10.0)
           (0.0 20.0)
  end
  begin
     id 18 
     name lhumerus
     direction 1 -4.48967e-011 -3.18382e-028   
     length 5.17714   
     axis 180 -30 -90   XYZ
    dof rx ry rz
    limits (-60.0 90.0)
           (-90.0 90.0)
           (-90.0 90.0)
  end
  begin
     id 19
     name lradius
     direction 1 -4.48968e-011 -2.22911e-027   
     length 3.43679   
     axis 180 -30 -90   XYZ
    dof rx
    limits (-10.0 170.0)
  end
  begin
     id 20
     name lwrist
     direction 1 -4.48951e-011 -6.32245e-027   
     length 1.7184   
     axis 3.57107e-015 90 90   XYZ
    dof ry
    limits (-180.0 0.0)
 end
  begin
     id 21 
     name lhand
     direction 1 -4.48924e-011 -1.26431e-026   
     length 0.573117   
     axis 8.06912e-015 90 90   XYZ
    dof rx rz
    limits (-90.0 90.0)
           (-45.0 45.0)
  end
  begin
     id 22 
     name lfingers
     direction 1 -4.49001e-011 -2.52965e-026   
     length 0.462062   
     axis 1.61381e-014 90 90   XYZ
    dof rx
    limits (0.0 90.0)
  end
  begin
     id 23
     name lthumb
     direction 0.707107 -6.35008e-011 0.707107   
     length 0.663431   
     axis -90 45 -1.62303e-014   XYZ
    dof rx rz
    limits (-45.0 45.0)
           (-45.0 45.0)
  end
  begin
     id 24 
     name rclavicle
     direction -0.963917 0.256881 -0.0698287   
     length 3.73057  
     axis 0 0 0   XYZ 
    dof ry rz
    limits (-10.0 20.0)
           (-20.0 0.0)
  end
  begin
     id 25 
     name rhumerus
     direction -1 -4.48962e-011 -2.73982e-027  
     length 5.23908   
     axis 180 30 90   XYZ
    dof rx ry rz
    limits (-90.0 60.0)
           (-90.0 90.0)
           (-90.0 90.0)
  end
  begin
     id 26 
     name rradius
     direction -1 -4.48968e-011 -4.33218e-027   
     length 3.46485   
     axis 180 30 90   XYZ
    dof rx
    limits (-10.0 170.0)
  end
  begin
     id 27 
     name rwrist
     direction -1 -4.48989e-011 -6.32372e-027   
     length 1.73243   
     axis 3.57107e-015 -90 -90   XYZ
    dof ry
    limits (-180.0 0.0)
  end
  begin
     id 28
     name rhand
     direction -1 -4.48948e-011 -1.26448e-026   
     length 0.608752   
     axis 8.06912e-015 -90 -90   XYZ
    dof rx rz
    limits (-90.0 90.0)
           (-45.0 45.0)
  end
  begin
     id 29
     name rfingers
     direction -1 -4.48962e-011 -2.52913e-026   
     length 0.490792   
     axis 1.61381e-014 -90 -90   XYZ
    dof rx
    limits (0.0 90.0)
  end
  begin
     id 30
     name rthumb
     direction -0.707107 -6.34878e-011 0.707107   
     length 0.704682   
     axis -90 -45 1.62303e-014   XYZ
    dof rx rz
    limits (-45.0 45.0)
           (-45.0 45.0)
  end
:hierarchy
  begin
    root lhipjoint rhipjoint lowerback
    lhipjoint lfemur
    lfemur ltibia
    ltibia lfoot
    lfoot ltoes
    rhipjoint rfemur
    rfemur rtibia
    rtibia rfoot
    rfoot rtoes
    lowerback upperback
    upperback thorax
    thorax lowerneck lclavicle rclavicle
    lowerneck upperneck
    upperneck head
    lclavicle lhumerus
    lhumerus lradius
    lradius lwrist
    lwrist lhand lthumb
    lhand lfingers
    rclavicle rhumerus
    rhumerus rradius
    rradius rwrist
    rwrist rhand rthumb
    rhand rfingers
  end

#!OML:ASF G:\JayActor3\Patient Classification 1\Patient 1\Session 6\male.ASF
:FULLY-SPECIFIED
:DEGREES
182
root 49.3692 15.8061 17.4553 -181.498 -24.2087 -178.473
lowerback 0.169601 -0.535973 2.58779
upperback 3.8305 -0.872671 -0.282046
thorax 3.80777 -0.393267 -1.77056
lowerneck -4.46565 1.76485 3.64052
upperneck 7.84724 2.06698 -0.834952
head 3.37152 1.06516 -0.823243
rclavicle -1.25731e-014 3.27995e-015
rhumerus -31.6163 -3.66793 -88.067
rradius 29.3485
rwrist 0.788309
rhand -21.3252 -6.31312
rfingers 7.12502
rthumb 5.06036 -36.2327
lclavicle -1.25731e-014 3.27995e-015
lhumerus -30.0312 4.48699 85.0602
lradius 27.0107
lwrist 19.7109
lhand -17.4745 7.6172
lfingers 7.12502
lthumb 8.77749 37.4147
rfemur -10.6445 1.10562 24.2691
rtibia 40.0993
rfoot -29.7292 -16.3201
rtoes -0.477714
lfemur -6.82968 8.67248 -19.1995
ltibia 30.766
lfoot -20.7007 0.663754
ltoes 3.29326
183
root 49.3667 15.8062 17.457 -181.496 -24.1962 -178.485
lowerback 0.2049 -0.531771 2.55626
upperback 3.81898 -0.865039 -0.280988
thorax 3.77649 -0.390973 -1.75096
lowerneck -4.45132 1.7522 3.62694
upperneck 7.80224 2.05291 -0.834543
head 3.35253 1.05791 -0.821371
rclavicle -2.3059e-014 8.15017e-015
rhumerus -31.6228 -3.65461 -88.0714
rradius 29.3476
rwrist 0.818651
rhand -21.3204 -6.30041
rfingers 7.12502
rthumb 5.06498 -36.2199
lclavicle -2.3059e-014 8.15017e-015
lhumerus -30.0094 4.41766 85.1095
lradius 27.0365
lwrist 19.7356
lhand -17.4468 7.60821
lfingers 7.12502
lthumb 8.80416 37.4046
rfemur -10.6477 1.10627 24.2461
rtibia 40.1054
rfoot -29.721 -16.3296
rtoes -0.513339
lfemur -6.82709 8.67338 -19.2253
ltibia 30.7596
lfoot -20.7085 0.694704
ltoes 3.23254
184
root 49.3644 15.8064 17.4587 -181.496 -24.1804 -178.497
lowerback 0.241583 -0.526356 2.52121
upperback 3.80838 -0.855885 -0.277377
thorax 3.74553 -0.388089 -1.72673
lowerneck -4.43231 1.73801 3.61829
upperneck 7.75736 2.03767 -0.847586
head 3.33299 1.04972 -0.824857
rclavicle -3.27125e-014 6.65929e-015
rhumerus -31.6253 -3.64395 -88.0712
rradius 29.3463
rwrist 0.854449
rhand -21.3118 -6.28293
rfingers 7.12502
rthumb 5.07334 -36.2022
lclavicle -3.27125e-014 6.65929e-015
lhumerus -29.9922 4.34445 85.165
lradius 27.0662
lwrist 19.7663
lhand -17.4003 7.61527
lfingers 7.12502
lthumb 8.84907 37.4097
rfemur -10.6508 1.11121 24.2231
rtibia 40.113
rfoot -29.7201 -16.3311
rtoes -0.517398
lfemur -6.82375 8.67766 -19.2509
ltibia 30.7528
lfoot -20.72 0.730547
ltoes 3.15597
185
root 49.3619 15.8066 17.4605 -181.496 -24.1634 -178.507
lowerback 0.276153 -0.521714 2.48476
upperback 3.79898 -0.848004 -0.27062
thorax 3.717 -0.385906 -1.69855
lowerneck -4.41453 1.72797 3.60988
upperneck 7.7165 2.028 -0.863115
head 3.31528 1.04421 -0.828945
rclavicle -3.67876e-014 1.28216e-014
rhumerus -31.6251 -3.61972 -88.0703
rradius 29.3478
rwrist 0.885162
rhand -21.3066 -6.27346
rfingers 7.12502
rthumb 5.07834 -36.1926
lclavicle -3.67876e-014 1.28216e-014
lhumerus -29.9738 4.2633 85.2276
lradius 27.0945
lwrist 19.8003
lhand -17.3448 7.64561
lfingers 7.12502
lthumb 8.90267 37.4378
rfemur -10.6541 1.11716 24.2007
rtibia 40.1219
rfoot -29.7234 -16.325
rtoes -0.505516
lfemur -6.81993 8.67839 -19.2765
ltibia 30.7454
lfoot -20.7363 0.772711
ltoes 3.08736
186
root 49.3594 15.8067 17.4622 -181.494 -24.1458 -178.519
lowerback 0.306492 -0.517905 2.44854
upperback 3.78963 -0.841372 -0.262986
thorax 3.69086 -0.384288 -1.6697
lowerneck -4.39136 1.71942 3.60478
upperneck 7.67779 2.02084 -0.887064
head 3.29755 1.0397 -0.836293
rclavicle 5.61939e-014 -1.04362e-014
rhumerus -31.6234 -3.58681 -88.0696
rradius 29.3509
rwrist 0.91387
rhand -21.301 -6.27531
rfingers 7.12502
rthumb 5.08374 -36.1943
lclavicle 5.61939e-014 -1.04362e-014
lhumerus -29.9617 4.17881 85.2953
lradius 27.1265
lwrist 19.8341
lhand -17.2916 7.68914
lfingers 7.12502
lthumb 8.95394 37.4791
rfemur -10.6601 1.12245 24.1776
rtibia 40.1328
rfoot -29.7248 -16.3192
rtoes -0.495112
lfemur -6.81695 8.6777 -19.3038
ltibia 30.737
lfoot -20.7567 0.824817
ltoes 2.99734
187
root 49.3566 15.807 17.4638 -181.489 -24.1293 -178.531
lowerback 0.330487 -0.51401 2.41794
upperback 3.7807 -0.834757 -0.25879
thorax 3.66865 -0.382339 -1.64764
lowerneck -4.36766 1.71544 3.59667
upperneck 7.64161 2.01883 -0.898364
head 3.28048 1.0381 -0.838735
rclavicle -5.49018e-014 6.55989e-015
rhumerus -31.6225 -3.54544 -88.0754
rradius 29.3614
rwrist 0.928412
rhand -21.2976 -6.29115
rfingers 7.12502
rthumb 5.08696 -36.2101
lclavicle -5.49018e-014 6.55989e-015
lhumerus -29.9466 4.07964 85.3641
lradius 27.1554
lwrist 19.8733
lhand -17.2616 7.7393
lfingers 7.12502
lthumb 8.98287 37.528
rfemur -10.6693 1.12243 24.1522
rtibia 40.1451
rfoot -29.7249 -16.3078
rtoes -0.485437
lfemur -6.81586 8.66571 -19.3356
ltibia 30.7283
lfoot -20.7813 0.889395
ltoes 2.91702
188
root 49.3538 15.8072 17.4654 -181.478 -24.1165 -178.547
lowerback 0.346911 -0.510584 2.38981
upperback 3.77128 -0.828736 -0.259362
thorax 3.6501 -0.380406 -1.63199
lowerneck -4.34429 1.71544 3.58579
upperneck 7.60738 2.02095 -0.894654
head 3.26397 1.03899 -0.835587
rclavicle -3.99806e-014 4.17448e-015
rhumerus -31.6221 -3.49559 -88.0889
rradius 29.3796
rwrist 0.930872
rhand -21.2928 -6.33025
rfingers 7.12502
rthumb 5.09167 -36.2491
lclavicle -3.99806e-014 4.17448e-015
lhumerus -29.9321 3.96464 85.4333
lradius 27.1845
lwrist 19.9131
lhand -17.2464 7.77471
lfingers 7.12502
lthumb 8.99758 37.5628
rfemur -10.6848 1.11538 24.122
rtibia 40.1584
rfoot -29.7214 -16.2986
rtoes -0.488134
lfemur -6.8199 8.64201 -19.375
ltibia 30.7199
lfoot -20.8099 0.967385
ltoes 2.82184
189
root 49.3508 15.8074 17.4669 -181.463 -24.1055 -178.563
lowerback 0.356351 -0.505787 2.37198
upperback 3.76209 -0.821001 -0.265605
thorax 3.63563 -0.377088 -1.62801
lowerneck -4.32866 1.72011 3.5729
upperneck 7.58248 2.02736 -0.871857
head 3.25194 1.04262 -0.825621
rclavicle 3.69491e-014 -1.17283e-014
rhumerus -31.6217 -3.45051 -88.1082
rradius 29.4051
rwrist 0.925897
rhand -21.2842 -6.38974
rfingers 7.12502
rthumb 5.09999 -36.3084
lclavicle 3.69491e-014 -1.17283e-014
lhumerus -29.9149 3.82751 85.5031
lradius 27.21
lwrist 19.9566
lhand -17.2588 7.79148
lfingers 7.12502
lthumb 8.98557 37.5801
rfemur -10.703 1.10645 24.0909
rtibia 40.1713
rfoot -29.7206 -16.2818
rtoes -0.471619
lfemur -6.82798 8.60789 -19.4178
ltibia 30.7136
lfoot -20.8411 1.0621
ltoes 2.70305
190
root 49.3476 15.8076 17.4683 -181.445 -24.0943 -178.577
lowerback 0.361263 -0.49912 2.36246
upperback 3.75337 -0.81087 -0.276286
thorax 3.62419 -0.372168 -1.63326
lowerneck -4.31182 1.7219 3.56541
upperneck 7.55943 2.02933 -0.84799
head 3.24028 1.04421 -0.816461
rclavicle 1.82882e-014 -5.76476e-015
rhumerus -31.6213 -3.41059 -88.1327
rradius 29.4397
rwrist 0.911463
rhand -21.2693 -6.47733
rfingers 7.12502
rthumb 5.11435 -36.3956
lclavicle 1.82882e-014 -5.76476e-015
lhumerus -29.8983 3.67443 85.5733
lradius 27.2334
lwrist 19.9926
lhand -17.2856 7.78686
lfingers 7.12502
lthumb 8.95979 37.5766
rfemur -10.7231 1.09539 24.0597
rtibia 40.1829
rfoot -29.7172 -16.2653
rtoes -0.466431
lfemur -6.83957 8.55923 -19.4634
ltibia 30.7109
lfoot -20.8763 1.17363
ltoes 2.56936
